{"title":"The Lord of the Rings-The Fellowship of the Ring 2001-720p x264 ","uid":7201161,"size":3329915186,"categoryP":"video","categoryS":"hd___movies","magnet":"?xt=urn:btih:a46c37fdd8e1b25ab0d048243fa48bcde2962bf7&amp;dn=The+Lord+of+the+Rings-The+Fellowship+of+the+Ring+2001-720p+x264+&amp;tr=udp%3A%2F%2Ftracker.openbittorrent.com%3A80&amp;tr=udp%3A%2F%2Fopen.demonii.com%3A1337&amp;tr=udp%3A%2F%2Ftracker.coppersurfer.tk%3A6969&amp;tr=udp%3A%2F%2Fexodus.desync.com%3A6969","seeders":0,"leechers":1,"uploader":"Caveman44","files":-1,"time":1334942185,"description":"Source: The Lord of the Rings The Fellowship of the Ring 2001 720p Bluray x264-CBGB\n\nSubs: Arabic, Brazilian, Croatian, Danish, Dutch, English (HI), English, Finnish, French, Greek, Persian, Polish, Romanian, Serbian, Slovenian, Spanish, Swedish and Vietnamese.\n\nSample and Screens included.\n\nGeneral\nComplete name                    : The Lord of the Rings The Fellowship of the Ring 2001 720p x264 BRRip 2001-CC.mp4\nFormat                           : MPEG-4\nFormat profile                   : Base Media\nCodec ID                         : isom\nFile size                        : 3.06 GiB\nDuration                         : 2h 58mn\nOverall bit rate                 : 2 457 Kbps\nEncoded date                     : UTC 2012-04-15 17:37:02 \n\nVideo\nID                               : 1\nFormat                           : AVC\nFormat/Info                      : Advanced Video Codec\nFormat profile                   : &lt;a class=&quot;__cf_email__&quot; href=&quot;/cdn-cgi/l/email-protection&quot; data-cfemail=&quot;e9a1808e81a9a5dac7d8&quot;&gt;[email&amp;#160;protected]&lt;/a&gt;&lt;script cf-hash='f9e31' type=&quot;text/javascript&quot;&gt;\n/* &lt;![CDATA[ */!function(){try{var t=&quot;currentScript&quot;in document?document.currentScript:function(){for(var t=document.getElementsByTagName(&quot;script&quot;),e=t.length;e--;)if(t[e].getAttribute(&quot;cf-hash&quot;))return t[e]}();if(t&amp;&amp;t.previousSibling){var e,r,n,i,c=t.previousSibling,a=c.getAttribute(&quot;data-cfemail&quot;);if(a){for(e=&quot;&quot;,r=parseInt(a.substr(0,2),16),n=2;a.length-n;n+=2)i=parseInt(a.substr(n,2),16)^r,e+=String.fromCharCode(i);e=document.createTextNode(e),c.parentNode.replaceChild(e,c)}}}catch(u){}}();/* ]]&gt; */&lt;/script&gt;\nFormat settings, CABAC           : Yes\nFormat settings, ReFrames        : 5 frames\nCodec ID                         : avc1\nCodec ID/Info                    : Advanced Video Coding\nDuration                         : 2h 58mn\nBit rate mode                    : Variable\nBit rate                         : 2 069 Kbps\nNominal bit rate                 : 2 088 Kbps\nMaximum bit rate                 : 35.2 Mbps\nWidth                            : 1 280 pixels\nHeight                           : 528 pixels\nDisplay aspect ratio             : 2.40:1\nFrame rate mode                  : Variable\nFrame rate                       : 23.976 fps\nMinimum frame rate               : 19.048 fps\nMaximum frame rate               : 24.390 fps\nResolution                       : 24 bits\nColorimetry                      : 4:2:0\nScan type                        : Progressive\nBits/(Pixel*Frame)               : 0.128\nStream size                      : 2.58 GiB (84%)\nWriting library                  : x264 core 112\n\nAudio\nID                               : 2\nFormat                           : AAC\nFormat/Info                      : Advanced Audio Codec\nFormat version                   : Version 4\nFormat profile                   : LC\nFormat settings, SBR             : No\nCodec ID                         : 40\nDuration                         : 2h 58mn\nBit rate mode                    : Variable\nBit rate                         : 384 Kbps\nMaximum bit rate                 : 696 Kbps\nChannel(s)                       : 6 channels\nChannel positions                : Front: L C R, Rear: L R, LFE\nSampling rate                    : 48.0 KHz\nResolution                       : 16 bits\nStream size                      : 490 MiB (16%)\nLanguage                         : English\n\nEnjoy...\n\nRequested by Maincore.","torrent":{"xt":"urn:btih:a46c37fdd8e1b25ab0d048243fa48bcde2962bf7","amp;dn":"The+Lord+of+the+Rings-The+Fellowship+of+the+Ring+2001-720p+x264+","amp;tr":["udp%3A%2F%2Ftracker.openbittorrent.com%3A80","udp%3A%2F%2Fopen.demonii.com%3A1337","udp%3A%2F%2Ftracker.coppersurfer.tk%3A6969","udp%3A%2F%2Fexodus.desync.com%3A6969"],"infoHash":"a46c37fdd8e1b25ab0d048243fa48bcde2962bf7","infoHashBuffer":{"type":"Buffer","data":[164,108,55,253,216,225,178,90,176,208,72,36,63,164,139,205,226,150,43,247]},"announce":[],"urlList":[]}}